<svg width="263" height="41" viewBox="0 0 263 41" fill="none" xmlns="http://www.w3.org/2000/svg">
	<path
		fill-rule="evenodd"
		clip-rule="evenodd"
		d="M249.913 28.4105V14.1097C249.91 13.9068 249.949 13.7054 250.025 13.5174C250.101 13.3294 250.215 13.1586 250.358 13.0151C250.502 12.8716 250.672 12.7583 250.86 12.6819C251.048 12.6054 251.25 12.5674 251.453 12.5701H261.549C261.732 12.5713 261.912 12.609 262.08 12.681C262.248 12.753 262.4 12.8578 262.527 12.9893C262.654 13.1207 262.753 13.2762 262.819 13.4466C262.885 13.617 262.916 13.7988 262.911 13.9814C262.911 14.3426 262.768 14.6891 262.512 14.9445C262.257 15.1999 261.91 15.3434 261.549 15.3434H252.963V19.8636H260.404C260.769 19.8688 261.117 20.018 261.372 20.2787C261.627 20.5394 261.769 20.8904 261.766 21.2552C261.751 21.6051 261.6 21.9355 261.346 22.1766C261.092 22.4178 260.755 22.5509 260.404 22.5481H252.933V27.2163H261.638C261.998 27.2214 262.341 27.3665 262.595 27.6208C262.85 27.8752 262.995 28.2186 263 28.5783C263 28.9395 262.856 29.2859 262.601 29.5413C262.346 29.7967 261.999 29.9402 261.638 29.9402H251.453C251.251 29.9429 251.05 29.9052 250.863 29.8293C250.675 29.7535 250.505 29.6411 250.362 29.4987C250.218 29.3562 250.105 29.1866 250.028 28.9998C249.951 28.8129 249.912 28.6126 249.913 28.4105ZM212.962 13.9814C212.961 13.7789 213 13.5781 213.077 13.3907C213.154 13.2033 213.267 13.033 213.41 12.8898C213.553 12.7466 213.724 12.6332 213.911 12.5563C214.098 12.4794 214.299 12.4405 214.502 12.4418H214.827C215.145 12.4525 215.455 12.5398 215.732 12.6961C216.009 12.8525 216.243 13.0733 216.416 13.3399L225.101 24.591V13.9814C225.159 13.6303 225.339 13.311 225.611 13.0807C225.882 12.8503 226.226 12.7238 226.582 12.7238C226.938 12.7238 227.282 12.8503 227.553 13.0807C227.824 13.311 228.005 13.6303 228.062 13.9814V28.5388C228.066 28.7365 228.031 28.933 227.957 29.1167C227.884 29.3004 227.775 29.4676 227.636 29.6083C227.497 29.7491 227.331 29.8606 227.149 29.9362C226.966 30.0119 226.77 30.0502 226.572 30.0488H226.444C226.124 30.0359 225.813 29.9456 225.536 29.7857C225.259 29.6259 225.025 29.4012 224.855 29.1309L215.972 17.564V28.5881C215.915 28.9393 215.734 29.2585 215.463 29.4889C215.192 29.7193 214.848 29.8457 214.492 29.8457C214.136 29.8457 213.792 29.7193 213.521 29.4889C213.249 29.2585 213.069 28.9393 213.011 28.5881L212.962 13.9814ZM173.751 21.2848V21.2354C173.748 20.043 173.979 18.8617 174.433 17.7588C174.886 16.656 175.552 15.6532 176.393 14.8078C178.091 13.1003 180.398 12.1374 182.806 12.1309C185.214 12.1243 187.526 13.0747 189.234 14.7729C190.941 16.4711 191.904 18.7779 191.911 21.1861V21.2354C191.917 23.6435 190.967 25.9556 189.269 27.6631C187.57 29.3705 185.264 30.3334 182.855 30.3399C180.447 30.3465 178.135 29.3961 176.428 27.698C174.72 25.9998 173.757 23.6929 173.751 21.2848V21.2848ZM188.703 21.2848C188.738 22.0747 188.612 22.8634 188.333 23.6033C188.055 24.3433 187.629 25.0191 187.082 25.5901C186.535 26.161 185.878 26.6152 185.151 26.9252C184.424 27.2352 183.641 27.3947 182.851 27.3939C182.053 27.3946 181.263 27.2339 180.528 26.9216C179.794 26.6093 179.13 26.1518 178.577 25.5766C178.024 25.0014 177.593 24.3204 177.31 23.5743C177.027 22.8283 176.897 22.0328 176.929 21.2354V21.1861C176.901 20.397 177.032 19.6103 177.312 18.8723C177.593 18.1343 178.019 17.4599 178.564 16.8889C179.11 16.3178 179.764 15.8616 180.488 15.547C181.212 15.2324 181.992 15.0659 182.781 15.0572C183.581 15.0564 184.373 15.2177 185.108 15.5312C185.844 15.8447 186.509 16.304 187.062 16.8813C187.615 17.4586 188.046 18.1421 188.328 18.8904C188.61 19.6388 188.738 20.4365 188.703 21.2354V21.2848ZM139.218 13.4879C139.142 13.3694 139.098 13.2335 139.09 13.0932C139.1 12.9212 139.174 12.7594 139.299 12.6403C139.423 12.5213 139.588 12.4539 139.761 12.4516C139.884 12.4557 140.004 12.4925 140.108 12.5585C140.212 12.6244 140.297 12.717 140.353 12.8267L146.669 21.8769L152.996 12.8168C153.051 12.7106 153.133 12.6203 153.233 12.5547C153.333 12.489 153.448 12.4501 153.568 12.4418C153.733 12.4486 153.889 12.5158 154.007 12.6304C154.126 12.7451 154.198 12.8992 154.21 13.0636C154.19 13.243 154.122 13.4137 154.012 13.557L147.291 23.0119V29.3678C147.291 29.5393 147.223 29.7037 147.102 29.8249C146.98 29.9461 146.816 30.0143 146.645 30.0143C146.473 30.0143 146.309 29.9461 146.188 29.8249C146.066 29.7037 145.998 29.5393 145.998 29.3678V23.0711L139.218 13.4879ZM102.296 29.1013L109.718 12.9945C109.779 12.8123 109.895 12.6541 110.051 12.5424C110.207 12.4307 110.395 12.3713 110.587 12.3727H110.636C110.828 12.3713 111.015 12.4307 111.171 12.5424C111.327 12.6541 111.444 12.8123 111.505 12.9945L118.897 29.0323C118.961 29.1539 118.995 29.2894 118.995 29.427C118.99 29.5876 118.922 29.7397 118.806 29.8505C118.69 29.9613 118.534 30.0219 118.374 30.0192C118.23 30.0081 118.093 29.9555 117.98 29.8679C117.866 29.7803 117.78 29.6614 117.732 29.5257L115.699 25.0549H105.455L103.422 29.5455C103.383 29.6811 103.302 29.8005 103.19 29.886C103.078 29.9714 102.941 30.0181 102.8 30.0192C102.65 30.0221 102.505 29.9673 102.395 29.8662C102.285 29.7652 102.218 29.6256 102.208 29.4764C102.211 29.3465 102.241 29.2188 102.296 29.1013V29.1013ZM115.127 23.91H105.978L110.567 13.8531L115.127 23.91ZM66.6383 13.2215C66.6432 13.0529 66.7124 12.8926 66.8317 12.7733C66.9509 12.6541 67.1112 12.5849 67.2798 12.58H72.4119C77.8696 12.58 81.6398 16.3303 81.6398 21.2157V21.265C81.6398 26.1997 77.8696 29.9501 72.4119 29.9501H67.2798C67.1112 29.9451 66.9509 29.876 66.8317 29.7567C66.7124 29.6375 66.6432 29.4772 66.6383 29.3086V13.2215ZM72.4119 28.7855C77.2479 28.7855 80.3074 25.4793 80.3074 21.3341V21.2848C80.3074 17.1594 77.2577 13.784 72.4119 13.784H67.9509V28.7855H72.4119Z"
		fill="#333B40"></path>
	<path
		fill-rule="evenodd"
		clip-rule="evenodd"
		d="M35.2634 0H5.65517C4.15613 0.00260931 2.71923 0.599258 1.65924 1.65924C0.599258 2.71923 0.00260931 4.15613 0 5.65517V35.2634C0.00260931 36.7624 0.599258 38.1993 1.65924 39.2593C2.71923 40.3193 4.15613 40.916 5.65517 40.9186H35.2634C36.7624 40.916 38.1993 40.3193 39.2593 39.2593C40.3193 38.1993 40.916 36.7624 40.9186 35.2634V5.65517C40.916 4.15613 40.3193 2.71923 39.2593 1.65924C38.1993 0.599258 36.7624 0.00260931 35.2634 0V0ZM38.1157 35.2239C38.113 35.9787 37.8114 36.7016 37.2768 37.2344C36.7421 37.7672 36.0182 38.0663 35.2634 38.0663H5.65517C4.90212 38.0637 4.18066 37.7634 3.64817 37.2309C3.11568 36.6984 2.81538 35.977 2.81278 35.2239V5.61569C2.81539 4.86094 3.11705 4.13798 3.65167 3.60522C4.18629 3.07245 4.91028 2.7733 5.66504 2.7733H12.0407V25.0979C12.0178 25.2624 12.0431 25.43 12.1135 25.5804C12.1839 25.7308 12.2965 25.8576 12.4375 25.9453C12.5785 26.0331 12.7419 26.078 12.908 26.0748C13.0741 26.0715 13.2356 26.0201 13.373 25.9269L19.7388 22.9661C20.1669 22.7973 20.6431 22.7973 21.0712 22.9661L27.5455 25.9269C27.6838 26.0157 27.8444 26.0635 28.0087 26.0647C28.173 26.0659 28.3343 26.0204 28.4738 25.9336C28.6133 25.8468 28.7253 25.7222 28.7969 25.5743C28.8684 25.4264 28.8965 25.2612 28.8779 25.0979V2.81278H35.2535C36.0083 2.81277 36.7323 3.11192 37.2669 3.64469C37.8015 4.17746 38.1032 4.90042 38.1058 5.65517L38.1157 35.2239Z"
		fill="#4EC1FC"></path>
</svg>
